# xmcd CD database file
#
# Track frame offsets:
#	150
#	2912
#	18855
#	57005
#	84500
#	108530
#	156825
#	172570
#	210934
#	242587
#
# Disc length: 3694 seconds
#
# Revision: 0
# Processed by: cddbd v1.5.2PL0 Copyright (c) Steve Scherf et al.
# Submitted via: CDex 1.70beta2
#
DISCID=660e6c0a
DTITLE=Pema Chodron - The Places That Scare You (Disk 2)
DYEAR=2001
DGENRE=New Age
TTITLE0=Introduction
TTITLE1=Warrior slogans
TTITLE2=Overcoming the three difficulties
TTITLE3=Four limitless qualities
TTITLE4=Loving-kindness
TTITLE5=The seven stages of maitri
TTITLE6=Compassion
TTITLE7=Practicing compassion
TTITLE8=Tonglen
TTITLE9=Breathing for self and others
EXTD=YEAR: 2001
EXTT0=
EXTT1=
EXTT2=
EXTT3=
EXTT4=
EXTT5=
EXTT6=
EXTT7=
EXTT8=
EXTT9=
PLAYORDER=
